<svg xmlns="http://www.w3.org/2000/svg" xmlns:xlink="http://www.w3.org/1999/xlink" fill="none" version="1.1" width="34" height="34" viewBox="0 0 34 34"><clipPath id="master_svg0_97_0113"><rect x="0" y="0" width="34" height="34" rx="0"/></clipPath><g clip-path="url(#master_svg0_97_0113)"><g><path d="M5.66667,2.833251953125L28.3333,2.833251953125C29.1157,2.833251953125,29.75,3.467514953125,29.75,4.249921953125L29.75,31.557551953125C29.7505,32.071151953124996,29.2215,32.414551953125,28.7527,32.204951953125004L17,26.959051953125L5.247334,32.203551953125C4.779052,32.412851953125,4.250502924,32.070451953125,4.25,31.557551953125L4.25,4.249921953125C4.25,3.467514953125,4.884263,2.833251953125,5.66667,2.833251953125ZM17,19.124951953125L21.1636,21.313651953125L20.3688,16.678351953125002L23.7363,13.394451953125L19.0811,12.717331953125L17,8.499921953125L14.9175,12.717331953125L10.26375,13.394451953125L13.63117,16.678351953125002L12.83783,21.313651953125L17,19.124951953125Z" fill="#06CC76" fill-opacity="1"/></g></g></svg>