<svg width="40" height="19" viewBox="0 0 40 19" fill="none" xmlns="http://www.w3.org/2000/svg">
<rect width="40" height="19" rx="9.5" fill="#F2C73B"/>
<path d="M17.984 8.072H20.712V5.544H21.32V8.072H24.016V12.744H23.432V12.432H17.936V11.872H23.432V10.496H18.36V9.944H23.432V8.632H17.984V8.072ZM24.04 6.128C23.7893 6.68267 23.4533 7.22133 23.032 7.744L22.512 7.472C22.928 6.944 23.264 6.416 23.52 5.888L24.04 6.128ZM18.552 5.96C18.9787 6.49333 19.3173 6.97867 19.568 7.416L19.08 7.752C18.824 7.29333 18.4853 6.79733 18.064 6.264L18.552 5.96ZM30.96 5.6C30.8 5.90933 30.6187 6.19733 30.416 6.464H32.576V7.024H25.416V6.464H27.608C27.4427 6.12267 27.2693 5.82133 27.088 5.56L27.696 5.456C27.872 5.74933 28.048 6.08533 28.224 6.464H29.784C30.024 6.11733 30.2293 5.76533 30.4 5.408L30.96 5.6ZM27.56 12.752L27.408 12.184L28.008 12.208C28.216 12.208 28.32 12.0747 28.32 11.808V11.064H26.536V12.816H25.976V7.672H28.88V11.936C28.88 12.48 28.6507 12.752 28.192 12.752H27.56ZM26.536 10.552H28.32V9.64H26.536V10.552ZM26.536 9.128H28.32V8.208H26.536V9.128ZM30.24 12.728L30.12 12.176C30.4933 12.2027 30.8213 12.216 31.104 12.216C31.328 12.216 31.44 12.0933 31.44 11.848V7.448H32.016V11.992C32.016 12.4827 31.7787 12.728 31.304 12.728H30.24ZM29.776 8.048H30.336V11.496H29.776V8.048Z" fill="white"/>
<path d="M10.5 7.62951C10.2187 7.62951 9.9543 7.74682 9.75484 7.96123C9.65682 8.06629 9.5791 8.19114 9.52614 8.3286C9.47318 8.46607 9.44602 8.61343 9.44624 8.76222C9.44624 9.06461 9.55632 9.3488 9.75484 9.56321C9.85257 9.66857 9.96872 9.75212 10.0966 9.80904C10.2245 9.86597 10.3616 9.89516 10.5 9.89493C10.7813 9.89493 11.0457 9.7766 11.2452 9.56321C11.4446 9.3488 11.5538 9.06461 11.5538 8.76222C11.5538 8.45983 11.4446 8.17564 11.2452 7.96123C11.0457 7.74682 10.7813 7.62951 10.5 7.62951ZM13.7234 7.24621C13.5463 6.80716 13.2909 6.40964 12.9716 6.07608C12.6514 5.7395 12.2738 5.47236 11.8595 5.28925C11.4286 5.09709 10.9714 5 10.5 5C10.0286 5 9.57137 5.09709 9.14046 5.28823C8.72366 5.47331 8.35013 5.73829 8.02836 6.07506C7.70934 6.40882 7.45398 6.80629 7.27661 7.2452C7.09315 7.7003 7 8.18373 7 8.68131C7 9.39532 7.15901 10.1063 7.47137 10.792C7.72258 11.3432 8.07352 11.8802 8.51573 12.3909C9.27124 13.2627 10.0634 13.7957 10.2883 13.9383C10.3521 13.9788 10.4249 14.0001 10.4991 14C10.5724 14 10.6449 13.9798 10.7098 13.9383C10.9347 13.7957 11.7269 13.2627 12.4824 12.3909C12.9246 11.8812 13.2755 11.3432 13.5267 10.792C13.841 10.1073 14 9.39735 14 8.68232C14 8.18474 13.9069 7.70131 13.7234 7.24621ZM10.5 10.5422C9.58548 10.5422 8.84409 9.74525 8.84409 8.76222C8.84409 7.77919 9.58548 6.98224 10.5 6.98224C11.4145 6.98224 12.1559 7.77919 12.1559 8.76222C12.1559 9.74525 11.4145 10.5422 10.5 10.5422Z" fill="white"/>
</svg>
