<svg xmlns="http://www.w3.org/2000/svg" xmlns:xlink="http://www.w3.org/1999/xlink" fill="none" version="1.1" width="109.3671875" height="160.0009765625" viewBox="0 0 109.3671875 160.0009765625"><g style="mix-blend-mode:passthrough"><g style="mix-blend-mode:passthrough"><ellipse cx="54.68354034423828" cy="54.68354034423828" rx="54.68354034423828" ry="54.68354034423828" fill="#00E1F0" fill-opacity="1"/></g><g style="mix-blend-mode:passthrough"><g style="mix-blend-mode:passthrough"><path d="M58.73417219848633,113.41773388061523L52.65822219848633,105.31645388061523L60.75949219848633,103.29113388061523L66.83542219848633,105.07341388061523L66.83542219848633,105.31645388061523L58.73417219848633,113.41773388061523Z" fill="#FFFFFF" fill-opacity="1"/></g><g style="mix-blend-mode:passthrough"><path d="M46.58228043701172,113.41773388061523L38.48101043701172,105.31645388061523L38.48101043701172,105.07341388061523L44.55696043701172,103.29113388061523L52.65821043701172,105.31645388061523L46.58228043701172,113.41773388061523Z" fill="#FFFFFF" fill-opacity="1"/></g><g style="mix-blend-mode:passthrough"><path d="M48.607610437011715,117.46834821166992L44.55696043701172,159.99994821166993L38.48101043701172,159.99994821166993L38.48101043701172,123.54424821166992L38.48101043701172,105.31644821166992L46.58228043701172,113.41770821166992L48.607610437011715,117.46834821166992Z" fill="#FFFFFF" fill-opacity="1"/></g><g style="mix-blend-mode:passthrough"><path d="M66.83545848999023,159.99994821166993L60.75948848999023,159.99994821166993L56.708858489990234,117.46834821166992L58.734178489990235,113.41770821166992L66.83545848999023,105.31644821166992L66.83545848999023,123.54424821166992L66.83545848999023,159.99994821166993Z" fill="#FFFFFF" fill-opacity="1"/></g><g style="mix-blend-mode:passthrough"><path d="M58.734175390625,113.41770821166992L56.708875390624996,117.46834821166992L48.607595390625,117.46834821166992L46.582275390625,113.41770821166992L52.658225390625,105.31644821166992L58.734175390625,113.41770821166992Z" fill="#0065FF" fill-opacity="1"/></g><g style="mix-blend-mode:passthrough"><path d="M60.75946105957031,159.9999494567871L44.55696105957031,159.9999494567871L48.60759105957031,117.46834945678711L56.70886105957031,117.46834945678711L60.75946105957031,159.9999494567871Z" fill="#0065FF" fill-opacity="1"/></g><g style="mix-blend-mode:passthrough"><path d="M72.91138777465821,159.99999244995118L66.8354377746582,159.99999244995118L66.8354377746582,123.54429244995117L76.9620377746582,131.64555244995117L72.91138777465821,159.99999244995118Z" fill="#EDF4FA" fill-opacity="1"/></g><g style="mix-blend-mode:passthrough"><path d="M76.9620377746582,119.49346970825195L66.8354377746582,123.54406970825195L66.8354377746582,105.31620570825196L66.8354377746582,105.07316970825195L72.91138777465821,106.85543970825195L72.91138777465821,107.34151970825195L76.9620377746582,119.49346970825195Z" fill="#EDF4FA" fill-opacity="1"/></g><g style="mix-blend-mode:passthrough"><path d="M38.48102733764648,159.99999244995118L32.40505733764648,159.99999244995118L28.354427337646484,131.64555244995117L38.48102733764648,123.54429244995117L38.48102733764648,159.99999244995118Z" fill="#EDF4FA" fill-opacity="1"/></g><g style="mix-blend-mode:passthrough"><path d="M38.48102733764648,123.54406970825195L28.354427337646484,119.49346970825195L32.40505733764648,107.34151970825195L32.40505733764648,106.85543970825195L38.48102733764648,105.07316970825195L38.48102733764648,105.31620570825196L38.48102733764648,123.54406970825195Z" fill="#EDF4FA" fill-opacity="1"/></g><g style="mix-blend-mode:passthrough"><path d="M20.25313247680664,159.9995387878418L4.050632476806641,159.9995387878418L9.78227247680664,116.0299387878418C9.90874247680664,115.0332287878418,10.408062476806641,114.1214147878418,11.179742476806641,113.4780387878418L14.17723247680664,117.4679087878418L20.25313247680664,127.5945387878418L20.25313247680664,159.9995387878418Z" fill="#D6E0EB" fill-opacity="1"/></g><g style="mix-blend-mode:passthrough"><path d="M101.26578964233398,159.99974229125976L85.06328964233398,159.99974229125976L85.06328964233398,127.59474229125976L91.13923964233399,117.46811229125977L93.71138964233398,113.17444229125977L93.73163964233399,113.17444229125977C94.22346964233398,113.48874329125977,94.63998964233399,113.90758329125977,94.95153964233398,114.40116229125977C95.26308964233398,114.89474229125976,95.46198964233399,115.45093229125976,95.53418964233398,116.03014229125976L95.53418964233398,116.03014229125976L101.26578964233398,159.99974229125976Z" fill="#D6E0EB" fill-opacity="1"/></g><g style="mix-blend-mode:passthrough"><path d="M91.1392377746582,117.4679131652832L85.0632377746582,127.5944131652832L85.0632377746582,159.9995131652832L72.91138777465821,159.9995131652832L76.9620377746582,131.6451131652832L66.8354377746582,123.54381316528321L76.9620377746582,119.49321316528321L72.91138777465821,107.3412921652832L72.91138777465821,106.8552131652832L92.6582377746582,112.6678731652832C93.0327377746582,112.7826931652832,93.38783777465821,112.9533931652832,93.7113377746582,113.1742031652832L93.7113377746582,113.1742031652832L91.1392377746582,117.4679131652832Z" fill="#D6E0EB" fill-opacity="1"/></g><g style="mix-blend-mode:passthrough"><path d="M28.353496768188478,131.6451131652832L32.40409676818848,159.9995131652832L20.252216768188475,159.9995131652832L20.252216768188475,127.5944131652832L14.176266768188476,117.4679131652832L11.178796768188477,113.47799316528321C11.609350768188477,113.1072531652832,12.113085768188476,112.83123316528321,12.657276768188476,112.6678731652832L32.40409676818848,106.8552131652832L32.40409676818848,107.3412921652832L28.353496768188478,119.49321316528321L38.480096768188474,123.54381316528321L28.353496768188478,131.6451131652832Z" fill="#D6E0EB" fill-opacity="1"/></g><g style="mix-blend-mode:passthrough"><path d="M76.9620014831543,70.88611043701172C76.9588014831543,69.81281043701172,76.5310014831543,68.78431043701173,75.7721014831543,68.02541043701171C75.0131014831543,67.26641043701171,73.9847014831543,66.83861043701172,72.9114014831543,66.83541043701172L70.8860714831543,66.83541043701172L70.8860714831543,58.73421043701172Q66.8354314831543,58.73421043701172,62.7848014831543,50.63291043701172L62.7848014831543,40.50633043701172C62.7848014831543,39.969180437011715,62.9981804831543,39.45403243701172,63.3780014831543,39.07421143701172C63.757821483154295,38.69439143701172,64.2729714831543,38.48101043701172,64.81012148315429,38.48101043701172C68.0315214831543,38.48583170701172,71.1196114831543,39.767670437011716,73.3975014831543,42.04554043701172C75.6754014831543,44.32342043701172,76.9572014831543,47.41151043701172,76.9620014831543,50.63291043701172L76.9620014831543,50.63291043701172L76.9620014831543,70.88611043701172Z" fill="#784132" fill-opacity="1"/></g><g style="mix-blend-mode:passthrough"><path d="M34.43037733764648,66.83547796020508L32.40505733764648,66.83547796020508C31.331747337646483,66.83867796020508,30.303317337646483,67.26647796020508,29.544367337646484,68.02537796020508C28.785422337646484,68.78437796020508,28.357632857646486,69.81277796020507,28.354427337646484,70.88607796020509L28.354427337646484,54.68357796020508C28.35442733764649,49.31207796020508,30.488237337646485,44.16059796020508,34.28643733764648,40.362387960205076C38.08464733764649,36.564187960205075,43.23612733764649,34.430377960205085,48.607627337646484,34.43037796020508L56.70882733764648,34.43037796020508C58.32032733764649,34.43037796020508,59.86572733764648,35.07052096020508,61.00522733764648,36.20997796020508C62.14462733764648,37.349447960205076,62.78482733764648,38.894887960205075,62.78482733764648,40.50632796020508L62.78482733764648,50.63287796020508Q48.607627337646484,58.73417796020507,34.43037733764648,58.73417796020507L34.43037733764648,66.83547796020508Z" fill="#784132" fill-opacity="1"/></g><g style="mix-blend-mode:passthrough"><path d="M61.77215096679687,72.91138777465821C61.21287296679687,72.91138777465821,60.759490966796875,71.5512377746582,60.759490966796875,69.8734077746582C60.759490966796875,68.19558777465821,61.21287296679687,66.8354377746582,61.77215096679687,66.8354377746582C62.33142096679688,66.8354377746582,62.784810966796876,68.19558777465821,62.784810966796876,69.8734077746582C62.784810966796876,71.5512377746582,62.33142096679688,72.91138777465821,61.77215096679687,72.91138777465821Z" fill-rule="evenodd" fill="#F4BAA6" fill-opacity="1"/></g><g style="mix-blend-mode:passthrough"><path d="M43.544302913818356,72.91138777465821C42.98502491381836,72.91138777465821,42.53164291381836,71.5512377746582,42.53164291381836,69.8734077746582C42.53164291381836,68.19558777465821,42.98502491381836,66.8354377746582,43.544302913818356,66.8354377746582C44.10357291381836,66.8354377746582,44.55696291381836,68.19558777465821,44.55696291381836,69.8734077746582C44.55696291381836,71.5512377746582,44.10357291381836,72.91138777465821,43.544302913818356,72.91138777465821Z" fill-rule="evenodd" fill="#F4BAA6" fill-opacity="1"/></g><g style="mix-blend-mode:passthrough"><path d="M38.48102733764648,74.9367077746582L34.430387337646486,81.0126377746582L31.068357337646486,78.76453777465821C30.232557337646483,78.2108377746582,29.547137337646483,77.45843777465821,29.073503337646486,76.5748177746582C28.599867337646483,75.6911677746582,28.352802667646483,74.7038377746582,28.354435377536486,73.7012577746582L28.354435377536486,70.8860677746582C28.357640897646483,69.81275777465821,28.785430337646485,68.78432777465821,29.544377337646484,68.02537777465821C30.303327337646486,67.2664327746582,31.331757337646483,66.8386432946582,32.405067337646486,66.8354377746582L34.430387337646486,66.8354377746582L38.48102733764648,74.9367077746582Z" fill="#F4BAA6" fill-opacity="1"/></g><g style="mix-blend-mode:passthrough"><path d="M76.9620377746582,73.7012577746582C76.9636377746582,74.7038377746582,76.71658777465821,75.6911677746582,76.2429477746582,76.5748177746582C75.7693177746582,77.45843777465821,75.0838977746582,78.2108377746582,74.2480977746582,78.76453777465821L70.8860677746582,81.0126377746582L66.8354377746582,74.9367077746582L70.8860677746582,66.8354377746582L72.91138777465821,66.8354377746582C73.9846977746582,66.8386432946582,75.0131277746582,67.2664327746582,75.7720777746582,68.02537777465821C76.53101777465821,68.78432777465821,76.9588377746582,69.81275777465821,76.9620377746582,70.8860677746582L76.9620377746582,70.8860677746582L76.9620377746582,73.7012577746582Z" fill="#F4BAA6" fill-opacity="1"/></g><g style="mix-blend-mode:passthrough"><path d="M62.784776052856444,50.63290786743164Q66.83547605285645,58.73416786743164,70.88607605285645,58.73416786743164L70.88607605285645,66.83540786743164L66.83547605285645,74.93670786743164L38.48100605285644,74.93670786743164L34.430376052856445,66.83540786743164L34.430376052856445,58.73416786743164Q48.607576052856444,58.73416786743164,62.784776052856444,50.63290786743164ZM44.55697605285644,69.87340786743164C44.55697605285644,68.19240786743164,44.111386052856446,66.83540786743164,43.544296052856446,66.83540786743164C42.977206052856445,66.83540786743164,42.53163605285644,68.19240786743164,42.53163605285644,69.87340786743164C42.53163605285644,71.55440786743165,42.977206052856445,72.91140786743165,43.544296052856446,72.91140786743165C44.111386052856446,72.91140786743165,44.55697605285644,71.55440786743165,44.55697605285644,69.87340786743164ZM61.772176052856445,66.83540786743164C62.33927605285645,66.83540786743164,62.784776052856444,68.19240786743164,62.784776052856444,69.87340786743164C62.784776052856444,71.55440786743165,62.33927605285645,72.91140786743165,61.772176052856445,72.91140786743165C61.20507605285644,72.91140786743165,60.75947605285644,71.55440786743165,60.75947605285644,69.87340786743164C60.75947605285644,68.19240786743164,61.20507605285644,66.83540786743164,61.772176052856445,66.83540786743164Z" fill-rule="evenodd" fill="#F4BAA6" fill-opacity="1"/></g><g style="mix-blend-mode:passthrough"><path d="M52.65817605285645,95.18980654296875C49.851576052856444,95.18980654296875,47.08157605285645,94.55270654296875,44.55697605285644,93.32660654296875C42.05023605285645,92.16980654296876,39.837386052856445,90.46140654296875,38.083826052856445,88.32900654296876C36.33025605285645,86.19670654296876,35.08132505285644,83.69558654296875,34.430376052856445,81.01265654296876L38.48100605285644,74.93670654296875L66.83547605285645,74.93670654296875L70.88607605285645,81.01265654296876C70.23507605285644,83.69558654296875,68.98617605285645,86.19670654296876,67.23257605285644,88.32900654296876C65.47907605285644,90.46140654296875,63.266176052856444,92.16980654296876,60.75947605285644,93.32660654296875L60.75947605285644,93.32660654296875C58.23487605285645,94.55270654296875,55.46487605285645,95.18980654296875,52.65817605285645,95.18980654296875Z" fill="#EDF4FA" fill-opacity="1"/></g><g style="mix-blend-mode:passthrough"><path d="M44.55696105957031,103.29132645019531L52.65822105957031,105.31663645019532L60.75946105957031,103.29132645019531L60.75946105957031,93.32673645019531C58.234861059570314,94.55287645019531,55.46486105957031,95.18995645019531,52.65822105957031,95.18995645019531C49.851601059570314,95.18995645019531,47.081591059570314,94.55287645019531,44.55696105957031,93.32673645019531L44.55696105957031,93.32673645019531L44.55696105957031,103.29132645019531Z" fill="#D68975" fill-opacity="1"/></g><g style="mix-blend-mode:passthrough"><path d="M52.65822105957031,95.18993645019532C49.851601059570314,95.18993645019532,47.081591059570314,94.55286645019531,44.55696105957031,93.32673645019531L44.55696105957031,100.65834645019531L60.75946105957031,95.79760645019532L60.75946105957031,93.32673645019531C58.234861059570314,94.55286645019531,55.46486105957031,95.18993645019532,52.65822105957031,95.18993645019532Z" fill="#C96C55" fill-opacity="1"/></g><g style="mix-blend-mode:passthrough"><path d="M70.88607406616211,68.86075592041016L72.9113940661621,68.86075592041016C73.44853406616211,68.86075592041016,73.9636840661621,69.07413492041016,74.34350406616211,69.45395592041015C74.7233240661621,69.83377592041016,74.93670406616211,70.34892592041015,74.93670406616211,70.88607592041015L74.93670406616211,72.43341592041016C74.93668406616212,73.18580592041016,74.72709406616211,73.92332592041015,74.33145406616211,74.56328592041015C73.93581406616211,75.20325592041016,73.36974406616211,75.72038592041015,72.69670406616211,76.05670592041015L70.88607406616211,76.96201592041015L70.88607406616211,68.86075592041016Z" fill="#D68975" fill-opacity="1"/></g><g style="mix-blend-mode:passthrough"><path d="M34.430375483398436,68.86075592041016L32.40506548339844,68.86075592041016C31.867915483398438,68.86075592041016,31.352765483398436,69.07413492041016,30.972945483398437,69.45395592041015C30.593124483398437,69.83377592041016,30.379745483398438,70.34892592041015,30.379745483398438,70.88607592041015L30.379745483398438,72.43341592041016C30.379771032498436,73.18580592041016,30.589350483398437,73.92332592041015,30.984994483398438,74.56328592041015C31.380635483398436,75.20325592041016,31.94670548339844,75.72038592041015,32.61974548339844,76.05670592041015L34.430375483398436,76.96201592041015L34.430375483398436,68.86075592041016Z" fill="#D68975" fill-opacity="1"/></g><g style="mix-blend-mode:passthrough"><path d="M44.55697605285644,74.93670654296875L38.48100605285644,74.93670654296875L34.430376052856445,81.01265654296876C35.08132505285644,83.69558654296875,36.33025605285645,86.19670654296876,38.083826052856445,88.32900654296876C39.837386052856445,90.46140654296875,42.05023605285645,92.16980654296876,44.55697605285644,93.32660654296875C48.00497605285645,95.03280654296876,51.909576052856444,95.58730654296875,55.696176052856444,94.90830654296875C53.941676052856444,94.62490654296874,52.236676052856446,94.09230654296874,50.632876052856446,93.32660654296875C48.126176052856444,92.16980654296876,45.91337605285645,90.46140654296875,44.159776052856444,88.32900654296876C42.40620605285645,86.19670654296876,41.157276052856446,83.69558654296875,40.506326052856444,81.01265654296876L40.506326052856444,81.01265654296876L44.55697605285644,74.93670654296875Z" fill="#D6E0EB" fill-opacity="1"/></g><g style="mix-blend-mode:passthrough"><path d="M61.77215380126953,74.93672153625488C60.65359880126953,74.93672153625488,59.74683380126953,72.66979153625488,59.74683380126953,69.87341153625488C59.74683380126953,67.07703153625488,60.65359880126953,64.81012153625488,61.77215380126953,64.81012153625488C62.89070380126953,64.81012153625488,63.79746380126953,67.07703153625488,63.79746380126953,69.87341153625488C63.79746380126953,72.66979153625488,62.89070380126953,74.93672153625488,61.77215380126953,74.93672153625488Z" fill-rule="evenodd" fill="#3D240F" fill-opacity="1"/></g><g style="mix-blend-mode:passthrough"><path d="M43.54430193359375,74.93672153625488C42.42574693359375,74.93672153625488,41.51898193359375,72.66979153625488,41.51898193359375,69.87341153625488C41.51898193359375,67.07703153625488,42.42574693359375,64.81012153625488,43.54430193359375,64.81012153625488C44.66285193359375,64.81012153625488,45.56961193359375,67.07703153625488,45.56961193359375,69.87341153625488C45.56961193359375,72.66979153625488,44.66285193359375,74.93672153625488,43.54430193359375,74.93672153625488Z" fill-rule="evenodd" fill="#3D240F" fill-opacity="1"/></g><g style="mix-blend-mode:passthrough"><path d="M50.70410919189453,74.93669741699219L54.61296919189453,74.93669741699219C54.38613919189453,73.19290741699218,53.60030919189453,71.89872741699219,52.65853919189453,71.89872741699219C51.71676919189453,71.89872741699219,50.93094419189453,73.19290741699218,50.70410919189453,74.93669741699219Z" fill="#D9896D" fill-opacity="1"/></g><g style="mix-blend-mode:passthrough"><path d="M34.430376052856445,58.73416786743164L34.430376052856445,62.78480786743164Q48.607576052856444,62.78480786743164,62.784776052856444,54.68353786743164Q66.83547605285645,62.78480786743164,70.88607605285645,62.78480786743164L70.88607605285645,58.73416786743164Q66.83547605285645,58.73416786743164,62.784776052856444,50.63290786743164Q48.607576052856444,58.73416786743164,34.430376052856445,58.73416786743164Z" fill="#D68975" fill-opacity="1"/></g><g style="mix-blend-mode:passthrough"><path d="M45.86793043701172,62.77887096679687C46.27300043701172,62.85178096679687,46.58287043701172,62.20773096679687,46.58287043701172,61.766210966796876C46.58287043701172,61.64267096679688,46.536290437011715,58.728240966796875,42.53223043701172,58.728240966796875C38.52817323701172,58.728240966796875,38.48159089701172,61.64267096679688,38.48159089701172,61.766210966796876C38.47572956701172,61.94405096679687,38.51433483701172,62.12053096679688,38.593907437011715,62.279680966796874C38.67347943701172,62.438820966796875,38.79150543701172,62.57560096679688,38.937288437011716,62.67761096679688C39.23096043701172,62.85786096679688,39.51855043701172,62.689760966796875,39.74742043701172,62.41432096679687C39.85881043701172,62.27660096679688,39.94995043701172,62.10647096679688,40.06539043701172,61.976850966796874C40.183970437011716,61.859710966796875,40.32077043701172,61.762580966796875,40.47046043701172,61.68925096679688C40.82526043701172,61.48163096679688,41.20059043701172,61.311270966796876,41.59046043701172,61.18090096679688C42.10766043701172,61.03278096679688,42.65361043701172,61.01577096679687,43.17903043701172,61.13139096679687C43.70446043701172,61.24701096679688,44.19283043701172,61.491630966796876,44.60008043701172,61.84318096679687C44.937660437011715,62.215260966796876,45.33802043701172,62.52513096679687,45.78287043701172,62.758620966796876L45.78287043701172,62.758620966796876C45.81073043701172,62.767280966796875,45.83915043701172,62.774040966796875,45.86793043701172,62.77887096679687Z" fill="#3D240F" fill-opacity="1"/></g><g style="mix-blend-mode:passthrough"><path d="M59.45900051635742,62.77887096679687C59.053936516357425,62.85178096679687,58.74406051635742,62.20773096679687,58.74406051635742,61.766210966796876C58.74406051635742,61.64267096679688,58.79064291635742,58.728240966796875,62.79470051635742,58.728240966796875C66.79877051635742,58.728240966796875,66.84535051635743,61.64267096679688,66.84535051635743,61.766210966796876C66.85121051635743,61.94405096679687,66.81260051635742,62.12053096679688,66.73303051635742,62.279680966796874C66.65345051635742,62.438820966796875,66.53543051635742,62.57560096679688,66.38965051635742,62.67761096679688C66.09597051635743,62.85786096679688,65.80838051635742,62.689760966796875,65.57952051635742,62.41432096679687C65.46813051635742,62.27660096679688,65.37699051635742,62.10647096679688,65.26154051635743,61.976850966796874C65.14296051635742,61.859710966796875,65.00616051635743,61.762580966796875,64.85648051635742,61.68925096679688C64.50167051635742,61.48163096679688,64.12634051635742,61.311270966796876,63.736480516357425,61.18090096679688C63.21927051635742,61.03278096679688,62.673330516357424,61.01577096679687,62.147900516357424,61.13139096679687C61.622470516357424,61.24701096679688,61.13410051635742,61.491630966796876,60.72685051635742,61.84318096679687C60.38927051635742,62.215260966796876,59.988920516357425,62.52513096679687,59.54406351635742,62.758620966796876C59.51619751635742,62.767280966796875,59.48777851635742,62.774040966796875,59.45900051635742,62.77887096679687Z" fill="#3D240F" fill-opacity="1"/></g><g style="mix-blend-mode:passthrough"><path d="M66.20957605285645,73.92405060913086L39.106836052856444,73.92405060913086L35.33569305285644,66.38176560913087C35.25151205285645,66.21377260913086,35.122247052856444,66.07251660913086,34.962363052856446,65.97379660913086C34.80247905285645,65.87507600913086,34.61828205285644,65.82278691462086,34.430376052856445,65.82278060913086L34.430376052856445,69.09772060913086L37.57569605285644,75.39038060913086C37.65987605285645,75.55837060913086,37.78913605285645,75.69963060913086,37.949026052856446,75.79835060913086C38.10890605285645,75.89708060913085,38.293106052856444,75.94938060913086,38.48100605285644,75.94938060913086L66.83547605285645,75.94938060913086C67.02337605285645,75.94938060913086,67.20757605285644,75.89708060913085,67.36737605285644,75.79835060913086C67.52727605285645,75.69963060913086,67.65657605285645,75.55837060913086,67.74077605285645,75.39038060913086L70.88607605285645,69.09772060913086L70.88607605285645,65.82278060913086C70.69817605285644,65.82278691462086,70.51397605285644,65.87507600913086,70.35407605285644,65.97379660913086C70.19417605285645,66.07251660913086,70.06497605285645,66.21377260913086,69.98077605285644,66.38176560913087L66.20957605285645,73.92405060913086Z" fill="#8394B2" fill-opacity="1"/></g><g style="mix-blend-mode:passthrough"></g><g style="mix-blend-mode:passthrough"><path d="M69.46181148315429,39.40085143701172C67.9875614831543,38.78889743701172,66.4063314831543,38.47623882701172,64.81012148315429,38.48106547881172C64.2729714831543,38.48106547881172,63.7578224831543,38.69444643701172,63.3780014831543,39.074266437011715C62.9981814831543,39.45408743701172,62.7848014831543,39.96923043701172,62.7848014831543,40.50638043701172L62.7848014831543,50.63301043701172Q66.8354414831543,58.73421043701172,70.8860714831543,58.73421043701172L70.8860714831543,65.82281043701173L72.9114014831543,65.82281043701173C73.1800014831543,65.82281043701173,73.43750148315429,65.92951043701171,73.6275014831543,66.11941043701172C73.8174014831543,66.30931043701172,73.9241014831543,66.56691043701171,73.9241014831543,66.83551043701172C73.9187014831543,66.88151043701171,73.90920148315429,66.92691043701171,73.8957014831543,66.97121043701172C74.7693014831543,67.19001043701172,75.5450014831543,67.69371043701172,76.1003014831543,68.40271043701172C76.6556014831543,69.11171043701172,76.95890148315429,69.98551043701173,76.9620014831543,70.88611043701172L76.9620014831543,50.63301043701172C76.9669014831543,49.03671043701172,76.6542014831543,47.45553043701172,76.0422014831543,45.98128043701172C75.4303014831543,44.50703043701172,74.5313014831543,43.16920043701172,73.3975014831543,42.04562043701172L73.3975014831543,42.04562043701172C72.2739014831543,40.911830437011716,70.9360714831543,40.01280043701172,69.46181148315429,39.40085143701172Z" fill="#784132" fill-opacity="1"/></g><g style="mix-blend-mode:passthrough"><path d="M58.734127337646484,38.481007960205076C58.734127337646484,37.40671796020508,58.30742733764649,36.376417960205075,57.547727337646485,35.61677796020508C56.788127337646486,34.857139960205075,55.75782733764649,34.43037796020508,54.68352733764648,34.43037796020508L48.607627337646484,34.43037796020508C43.23612733764649,34.43037796020508,38.08464733764649,36.564187960205075,34.28643733764648,40.362387960205076C30.488237337646485,44.16059796020508,28.35442733764649,49.31207796020508,28.354427337646484,54.68357796020508C43.94932733764649,54.68357796020508,52.605527337646485,51.704277960205076,56.38882733764649,49.91797796020508C57.08852733764648,49.591277960205076,57.68072733764649,49.07207796020508,58.096127337646486,48.42107796020508C58.51142733764648,47.77007796020508,58.732827337646484,47.01427796020508,58.734127337646484,46.24197796020508L58.734127337646484,46.24197796020508L58.734127337646484,38.481007960205076Z" fill="#8A4B39" fill-opacity="1"/></g><g style="mix-blend-mode:passthrough"><path d="M30.379745483398438,67.40050282104492C30.992378483398436,67.03490282104492,31.69164548339844,66.83981282104492,32.40506548339844,66.83544282104492L34.430375483398436,66.83544282104492L34.430375483398436,58.73417282104492C33.35608548339844,58.73417282104492,32.325785483398434,59.16093582104492,31.566145483398437,59.92057282104492C30.80650848339844,60.68021282104492,30.379745483398438,61.71051282104492,30.379745483398438,62.78480282104492L30.379745483398438,67.40050282104492Z" fill="#4C2C21" fill-opacity="1"/></g><g style="mix-blend-mode:passthrough"><path d="M70.88607406616211,65.82278282104492L72.9113940661621,65.82278282104492C73.17996406616211,65.82278282104492,73.43753406616212,65.92947282104493,73.62744406616211,66.11938282104492C73.81735406616211,66.30929282104492,73.92404406616211,66.56686282104492,73.92404406616211,66.83543282104492C73.9186940661621,66.88143282104492,73.9092040661621,66.92684282104491,73.89569406616211,66.97113282104492C74.26130406616211,67.06799282104492,74.6116640661621,67.21522282104492,74.93670406616211,67.40860282104492L74.93670406616211,62.78480282104492C74.93670406616211,61.71051282104492,74.5099440661621,60.68021282104492,73.75030406616212,59.92057282104492C72.99066406616211,59.16093582104492,71.96036406616211,58.73417282104492,70.88607406616211,58.73417282104492L70.88607406616211,58.73417282104492L70.88607406616211,65.82278282104492Z" fill="#241510" fill-opacity="1"/></g><g style="mix-blend-mode:passthrough"><path d="M66.8354314831543,38.663288437011715C66.1666214831543,38.54593723701172,65.4891314831543,38.48496360701172,64.81012148315429,38.48101043701172C64.2729714831543,38.48101043701172,63.757821483154295,38.69439143701172,63.3780014831543,39.07421143701172C62.9981804831543,39.45403243701172,62.7848014831543,39.969180437011715,62.7848014831543,40.50633043701172L62.7848014831543,50.63291043701172Q66.8354314831543,58.73421043701172,70.8860714831543,58.73421043701172C73.1139014831543,58.73421043701172,74.9367014831543,62.572110437011716,74.9367014831543,64.81011043701172L74.9367014831543,67.40861043701172C75.54920148315429,67.76011043701172,76.0587014831543,68.26631043701173,76.4142014831543,68.87661043701172C76.7696014831543,69.48691043701172,76.9585014831543,70.17981043701172,76.9620014831543,70.88611043701172L76.9620014831543,56.70881043701172C76.5083014831543,56.70881043701172,76.0729014831543,56.69061043701171,75.6557014831543,56.65421043701172C73.2008014831543,56.374310437011715,70.9378814831543,55.19091043701172,69.3074914831543,53.33441043701172C67.6770914831543,51.477910437011715,66.79589148315429,49.081110437011716,66.8354314831543,46.61063043701172L66.8354314831543,46.61063043701172L66.8354314831543,38.663288437011715Z" fill="#613529" fill-opacity="1"/></g><g style="mix-blend-mode:passthrough"><g style="mix-blend-mode:passthrough"><path d="M11.179742476806641,113.47803592681885C10.408062476806641,114.12141192681885,9.90874247680664,115.03322592681884,9.78227247680664,116.02993592681885L9.57974247680664,117.65018592681885L15.189832476806641,126.06533592681885C15.85243247680664,127.06423592681885,16.20483247680664,128.23683592681886,16.20253247680664,129.43553592681886L16.20253247680664,149.87293592681885C16.20593247680664,151.19743592681886,15.77543247680664,152.48663592681885,14.97693247680664,153.54333592681886C14.178332476806641,154.60003592681886,13.05565247680664,155.36613592681886,11.78051247680664,155.72443592681884C10.505382476806641,156.08273592681886,9.14799247680664,156.01343592681886,7.9159224768066405,155.52733592681886C6.68385247680664,155.04123592681884,5.6449024768066405,154.16493592681886,4.9579744768066405,153.03243592681883L4.050632476806641,159.99953592681885L20.25313247680664,159.99953592681885L20.25313247680664,127.59443592681885L14.17723247680664,117.46790592681884L11.179742476806641,113.47803592681885Z" fill="#CCD6E0" fill-opacity="1"/></g><g style="mix-blend-mode:passthrough"><path d="M90.89352964233399,154.16955817184447C89.75406964233399,153.03005817184447,89.11391964233398,151.48465817184447,89.11391964233398,149.87315817184447L89.11391964233398,128.82205817184447C89.11373964233398,128.0219581718445,89.35052964233398,127.23965817184448,89.79442964233398,126.57395817184448L95.74478964233398,117.64840817184448L95.54228964233398,116.02815817184448C95.47008964233399,115.44894817184448,95.27118964233398,114.89275817184448,94.95964964233399,114.39917817184448C94.64808964233399,113.90559917184449,94.23157964233398,113.48675917184448,93.73974964233399,113.17245817184448L93.71948964233398,113.17245817184448L91.13923964233399,117.46814817184448L85.06328964233398,127.59475817184449L85.06328964233398,159.9997581718445L101.26578964233398,159.9997581718445L100.35848964233398,153.03265817184447C99.81938964233399,153.9212581718445,99.06078964233399,154.65625817184448,98.15558964233398,155.1669581718445C97.25048964233399,155.67765817184448,96.22918964233398,155.94705817184447,95.18988964233398,155.9491581718445L95.18988964233398,155.9491581718445C93.57842964233399,155.9491581718445,92.03298964233399,155.3089581718445,90.89352964233399,154.16955817184447Z" fill="#CCD6E0" fill-opacity="1"/></g><g style="mix-blend-mode:passthrough"><path d="M72.9113883972168,159.99955483398438L76.9620183972168,159.99955483398438L78.9873383972168,135.6957748339844L76.60961839721679,134.10995483398438L72.9113883972168,159.99955483398438Z" fill="#FFFFFF" fill-opacity="1"/></g><g style="mix-blend-mode:passthrough"><path d="M72.91138777465821,106.8552131652832L72.91138777465821,107.3412921652832L76.9620377746582,119.49321316528321L66.8354377746582,123.54381316528321L70.13264777465821,126.18081316528321L81.0126377746582,121.5185131652832L75.83594777465821,107.7159791652832L72.91138777465821,106.8552131652832Z" fill="#FFFFFF" fill-opacity="1"/></g><g style="mix-blend-mode:passthrough"><path d="M32.40506109924316,159.99955483398438L28.706831099243164,134.10995483398438L26.329111099243164,135.6957748339844L28.354431099243165,159.99955483398438L32.40506109924316,159.99955483398438Z" fill="#FFFFFF" fill-opacity="1"/></g><g style="mix-blend-mode:passthrough"><path d="M32.405066768188476,107.3412921652832L32.405066768188476,106.8552131652832L29.480506768188476,107.7159791652832L24.303796768188477,121.5185131652832L35.18379676818848,126.18081316528321L38.480996768188476,123.54381316528321L28.354426768188475,119.49321316528321L32.405066768188476,107.3412921652832Z" fill="#FFFFFF" fill-opacity="1"/></g></g><g style="mix-blend-mode:passthrough"><path d="M46.582270437011715,113.41770821166992L38.48101043701172,105.31644821166992L38.48101043701172,109.36707821166992L46.582270437011715,117.46834821166992L47.79747043701172,115.84804821166992L46.582270437011715,113.41770821166992Z" fill="#8394B2" fill-opacity="1"/></g><g style="mix-blend-mode:passthrough"><path d="M58.732989377441406,117.46834821166992L66.83424937744141,109.36707821166992L66.83424937744141,105.31644821166992L58.732989377441406,113.41770821166992L57.517799377441406,115.84804821166992L58.732989377441406,117.46834821166992Z" fill="#8394B2" fill-opacity="1"/></g><g style="mix-blend-mode:passthrough"><path d="M52.658225390625,109.36707821166992L57.518975390625,115.84804821166992L58.734175390625,113.41770821166992L52.658225390625,105.31644821166992L46.582275390625,113.41770821166992L47.797465390625,115.84804821166992L52.658225390625,109.36707821166992Z" fill="#0F3D91" fill-opacity="1"/></g><g style="mix-blend-mode:passthrough"><path d="M57.09366105957031,121.51897945678711L56.70886105957031,117.46834945678711L48.60759105957031,117.46834945678711L44.55696105957031,159.9999494567871L48.60759105957031,159.9999494567871L50.430381059570315,125.36708945678711C50.482381059570315,124.32827945678712,50.93200105957031,123.34927945678712,51.68607105957031,122.6329094567871C52.44015105957031,121.9165294567871,53.44091105957031,121.5176794567871,54.481011059570314,121.51897945678711L57.09366105957031,121.51897945678711Z" fill="#0F3D91" fill-opacity="1"/></g><g style="mix-blend-mode:passthrough"><path d="M64.81011848999023,159.99994431762696L58.734178489990235,159.99994431762696L56.708858489990234,141.77214431762695L62.987338489990236,141.77214431762695L64.81011848999023,159.99994431762696Z" fill="#2B2B37" fill-opacity="1"/></g><g style="mix-blend-mode:passthrough"><path d="M62.7848014831543,139.74682998657227L91.1392014831543,139.74682998657227L93.1645014831543,160.00002998657226L64.81012148315429,160.00002998657226L62.987330483154295,141.77214998657226L62.7848014831543,139.74682998657227Z" fill="#0065FF" fill-opacity="1"/></g><g style="mix-blend-mode:passthrough"><path d="M95.18985335083008,149.87340927124023L95.18985335083008,160.00000927124023L81.01265335083008,160.00000927124023L81.01265335083008,153.92403927124025C81.01265335083008,152.84974927124023,81.43941235083008,151.81944927124025,82.19905335083008,151.05980927124023C82.95869335083007,150.30016827124024,83.98899335083007,149.87340927124023,85.06328335083008,149.87340927124023L95.18985335083008,149.87340927124023Z" fill="#F4BAA6" fill-opacity="1"/></g><g style="mix-blend-mode:passthrough"><path d="M62.98803219848633,141.77214431762695L61.01335219848633,141.77214431762695L62.216392198486325,151.39644431762696C62.286842198486326,151.95924431762694,62.238332198486326,152.53054431762695,62.07399219848633,153.07334431762695C61.90965219848633,153.61614431762695,61.633142198486325,154.11844431762694,61.262372198486325,154.54764431762695C60.891602198486325,154.97684431762696,60.434832198486326,155.32334431762695,59.921642198486325,155.56484431762695C59.40844219848633,155.80634431762695,58.85025819848633,155.93734431762695,58.28322219848633,155.94934431762695L58.73486719848633,159.99994431762696L64.81081219848633,159.99994431762696L62.98803219848633,141.77214431762695Z" fill="#222430" fill-opacity="1"/></g><g style="mix-blend-mode:passthrough"><path d="M83.03800148315429,151.89872998657228C82.5008014831543,151.89872998657228,81.9857014831543,152.11212998657226,81.6058014831543,152.49192998657227C81.22600148315429,152.87172998657226,81.0126014831543,153.38692998657226,81.0126014831543,153.92402998657226C81.0126014831543,154.46122998657228,80.7993014831543,154.97632998657227,80.4194014831543,155.35612998657226C80.0396014831543,155.73602998657228,79.5245014831543,155.94932998657225,78.9873014831543,155.94932998657225L72.4374614831543,155.94932998657225C71.4500014831543,155.94952998657226,70.4964714831543,155.58902998657226,69.75613148315429,154.93562998657228C69.01580148315429,154.28222998657228,68.5396514831543,153.38082998657228,68.4172014831543,152.40102998657227L66.8354314831543,139.74682998657227L62.7848014831543,139.74682998657227L62.987330483154295,141.77214998657226L64.81012148315429,160.00002998657226L83.03800148315429,160.00002998657226L83.03800148315429,153.92402998657226C83.04230148315429,153.21112998657227,83.2359014831543,152.51222998657227,83.5990014831543,151.89872998657228L83.5990014831543,151.89872998657228L83.03800148315429,151.89872998657228Z" fill="#003CBF" fill-opacity="1"/></g><g style="mix-blend-mode:passthrough"><path d="M87.08860335083008,157.97467927124023C86.55145335083007,157.97467927124023,86.03630335083008,157.76129927124023,85.65648335083007,157.38147927124024C85.27666335083008,157.00164927124024,85.06328335083008,156.48650927124024,85.06328335083008,155.94935927124024L85.06328335083008,151.89872927124023C85.06328335083008,151.36157927124023,85.27666335083008,150.84642927124023,85.65648335083007,150.46660927124023C86.03630335083008,150.08678827124024,86.55145335083007,149.87340927124023,87.08860335083008,149.87340927124023L85.06328335083008,149.87340927124023C83.98899335083007,149.87340927124023,82.95869335083007,150.30016827124024,82.19905335083008,151.05980927124023C81.43941235083008,151.81944927124025,81.01265335083008,152.84974927124023,81.01265335083008,153.92403927124025L81.01265335083008,160.00000927124023L95.18985335083008,160.00000927124023L95.18985335083008,153.92403927124025C95.18985335083008,154.99833927124024,94.76315335083008,156.02863927124022,94.00345335083009,156.78827927124024C93.24385335083008,157.54791927124023,92.21355335083008,157.97467927124023,91.13925335083007,157.97467927124023L87.08860335083008,157.97467927124023Z" fill="#D68975" fill-opacity="1"/></g></g></g></svg>