<svg xmlns="http://www.w3.org/2000/svg" xmlns:xlink="http://www.w3.org/1999/xlink" fill="none" version="1.1" width="34" height="34" viewBox="0 0 34 34"><clipPath id="master_svg0_97_4081"><rect x="0" y="0" width="34" height="34" rx="0"/></clipPath><g clip-path="url(#master_svg0_97_4081)"><g><path d="M7.61191609375,6.3893460937499995C10.199736093750001,4.09346609375,13.54069609375,2.82806154375,17.00019609375,2.83351331945C24.82439609375,2.83351331945,31.16679609375,9.17592609375,31.16679609375,17.00019609375C31.17139609375,19.89569609375,30.28459609375,22.72249609375,28.62679609375,25.09639609375L24.79179609375,17.00019609375L28.33349609375,17.00019609375C28.33359609375,12.39085609375,25.54209609375,8.24063609375,21.27289609375,6.50290609375C17.00369609375,4.76517609375,12.10728609375,5.786136093750001,8.888326093749999,9.08526609375L7.61332609375,6.39076609375L7.61191609375,6.3893460937499995ZM26.38839609375,27.61099609375C23.80059609375,29.90689609375,20.45959609375,31.17229609375,17.00019609375,31.16689609375C9.17591609375,31.16689609375,2.83349609375,24.82439609375,2.83349609375,17.00019609375C2.83349609375,13.98979609375,3.77274609375,11.19892609375,5.37357609375,8.90392609375L9.20849609375,17.00019609375L5.66682609375,17.00019609375C5.66674609375,21.60949609375,8.458246093749999,25.75969609375,12.72746609375,27.49749609375C16.99669609375,29.23519609375,21.89299609375,28.21419609375,25.11199609375,24.91509609375L26.38699609375,27.60959609375L26.38839609375,27.61099609375ZM18.41679609375,19.17479609375L22.66679609375,19.17479609375L22.66679609375,22.00809609375L18.41679609375,22.00809609375L18.41679609375,24.84139609375L15.58349609375,24.84139609375L15.58349609375,22.00809609375L11.33349609375,22.00809609375L11.33349609375,19.17479609375L15.58349609375,19.17479609375L15.58349609375,17.758096093749998L11.33349609375,17.758096093749998L11.33349609375,14.92479609375L14.99699609375,14.92479609375L11.99082609375,11.92001609375L13.99679609375,9.91684609375L17.00019609375,12.92159609375L20.00489609375,9.91684609375L22.00949609375,11.92001609375L19.00329609375,14.92619609375L22.66679609375,14.92619609375L22.66679609375,17.759496093750002L18.41679609375,17.759496093750002L18.41679609375,19.17619609375L18.41679609375,19.17479609375Z" fill="#F44336" fill-opacity="1"/></g></g></svg>