<svg width="21" height="21" viewBox="0 0 21 21" fill="none" xmlns="http://www.w3.org/2000/svg">
<path d="M15.7071 0.292969L14.2929 1.70718L16.5858 4.00008H14C11.2386 4.00008 9 6.23865 9 9.00008V16.0001H11V9.00008C11 7.34322 12.3431 6.00008 14 6.00008H16.5858L14.2929 8.29297L15.7071 9.70718L20.4142 5.00008L15.7071 0.292969Z" fill="#666666"/>
<path d="M0 3.00008C0 1.89551 0.89543 1.00008 2 1.00008H10V3.00008L2 3.00008V19.0001H18V11.0001H20V19.0001C20 20.1046 19.1046 21.0001 18 21.0001H2C0.895432 21.0001 0 20.1046 0 19.0001V3.00008Z" fill="#666666"/>
</svg>
