<svg xmlns="http://www.w3.org/2000/svg" xmlns:xlink="http://www.w3.org/1999/xlink" fill="none" version="1.1" width="30" height="30" viewBox="0 0 30 30"><g><path d="M29.3974,0.29805C29.4072,0.30525,29.4167,0.31255,29.4261,0.31995C29.7888,0.604064,30.0004,1.03931,30,1.5L30,22.5C30,23.3284,29.3284,24,28.5,24L18.6182,24L22.0575,27.4394C22.6433,28.0251,22.6433,28.9749,22.0575,29.5606C21.4717,30.1464,20.522,30.1464,19.9362,29.5606L15,24.6245L10.0638,29.5606C9.47802,30.1464,8.52828,30.1464,7.9425,29.5606C7.35673,28.9749,7.35673,28.0251,7.9425,27.4394L11.3819,24L1.5,24C0.671573,24,0,23.3284,0,22.5L0,15C0,14.1716,0.671573,13.5,1.5,13.5C2.32843,13.5,3,14.1716,3,15L3,21L27,21L27,3L1.5,3C0.671573,3,0,2.32843,0,1.5C0,0.671573,0.671573,0,1.5,0L28.5,0C28.589,0.00000322715,28.6779,0.00788396,28.7655,0.02355C28.9947,0.0645157,29.2111,0.15852,29.3974,0.29805ZM3,9C3,9.82843,2.32843,10.5,1.5,10.5C0.671573,10.5,0,9.82843,0,9L0,7.5C0,6.67157,0.671573,6,1.5,6C2.32843,6,3,6.67157,3,7.5L3,9ZM22.425,18C23.2535,18,23.925,17.3284,23.925,16.5L23.925,7.5C23.925,6.67157,23.2535,6,22.425,6C21.5966,6,20.925,6.67157,20.925,7.5L20.925,16.5C20.925,17.3284,21.5966,18,22.425,18ZM14.0251,16.5C14.0251,17.3284,13.3536,18,12.5251,18C11.6967,18,11.0251,17.3284,11.0251,16.5L11.0251,10.5C11.0251,9.67157,11.6967,9,12.5251,9C13.3536,9,14.0251,9.67157,14.0251,10.5L14.0251,16.5ZM17.4751,18C18.3035,18,18.9751,17.3284,18.9751,16.5L18.9751,12C18.9751,11.1716,18.3035,10.5,17.4751,10.5C16.6467,10.5,15.9751,11.1716,15.9751,12L15.9751,16.5C15.9751,17.3284,16.6467,18,17.4751,18ZM9.07495,16.5C9.07495,17.3284,8.40338,18,7.57495,18C6.74652,18,6.07495,17.3284,6.07495,16.5L6.07495,15C6.07495,14.1716,6.74652,13.5,7.57495,13.5C8.40338,13.5,9.07495,14.1716,9.07495,15L9.07495,16.5Z" fill-rule="evenodd" fill="#FFD340" fill-opacity="1"/></g></svg>