<svg xmlns="http://www.w3.org/2000/svg" xmlns:xlink="http://www.w3.org/1999/xlink" fill="none" version="1.1" width="48" height="48" viewBox="0 0 48 48"><defs><clipPath id="master_svg0_1457_1226"><rect x="0" y="0" width="48" height="48" rx="0"/></clipPath></defs><g clip-path="url(#master_svg0_1457_1226)"><g><path d="M40.298355078125,34.50010078125C39.419955078125,34.50010078125,38.707155078125,33.787300781249996,38.707155078125,32.90890078125L38.707155078125,20.91370078125C38.707155078125,14.30170078125,34.336755078125,8.712100781250001,28.327155078125,6.87370078125C28.329555078125,6.81370078125,28.336755078125,6.75370078125,28.336755078125,6.69370078125C28.336755078125,4.31290078125,26.407155078125,2.38330078125,24.026355078125,2.38330078125C21.645555078125,2.38330078125,19.715955078125,4.31290078125,19.715955078125,6.69370078125C19.715955078125,6.75370078125,19.723155078125,6.81370078125,19.725555078124998,6.87370078125C13.715995078125,8.712100781250001,9.345595078125001,14.30170078125,9.345595078125001,20.91370078125L9.345595078125001,32.91130078125C9.345595078125001,33.789700781250005,8.632795078125,34.50250078125,7.754395078125,34.50250078125C6.652795078125,34.50250078125,5.692793578125,35.33290078125,5.620793758125,36.43210078125C5.543993878125,37.63690078125,6.496794078125,38.63770078125,7.682395078124999,38.63770078125L40.370355078125,38.63770078125C41.558355078125,38.63770078125,42.511155078125,37.63690078125,42.431955078125,36.43210078125C42.362355078125,35.33290078125,41.399955078125,34.50010078125,40.298355078125,34.50010078125Z" fill="#FFAC3E" fill-opacity="1"/></g><g><path d="M17.63525390625,38.65904765625C17.63525390625,42.36774765625,20.64175390625,45.37424765625,24.35045390625,45.37424765625C28.05915390625,45.37424765625,31.06565390625,42.36774765625,31.06565390625,38.65904765625C31.06565390625,34.95034765625,28.05915390625,31.94384765625,24.35045390625,31.94384765625C20.64175390625,31.94384765625,17.6352557373,34.95034765625,17.63525390625,38.65904765625Z" fill="#FFB357" fill-opacity="1"/></g><g><path d="M31.0632953125,38.63504765625C31.051295312500002,34.93664765625,28.0488953125,31.94384765625,24.3504953125,31.94384765625C20.652095312500002,31.94384765625,17.6496960125,34.93664765625,17.6376953125,38.63504765625L31.0632953125,38.63504765625Z" fill="#FF7C0E" fill-opacity="1"/></g></g></svg>