<svg xmlns="http://www.w3.org/2000/svg" xmlns:xlink="http://www.w3.org/1999/xlink" fill="none" version="1.1" width="34" height="34" viewBox="0 0 34 34"><clipPath id="master_svg0_97_0117"><rect x="0" y="0" width="34" height="34" rx="0"/></clipPath><g clip-path="url(#master_svg0_97_0117)"><g><path d="M15.5833,2.833251953125C21.3463,2.833251953125,26.1035,7.134251953125,26.8232,12.700331953125L30.0107,17.713951953124997C30.2203,18.043951953125,30.1778,18.535551953125,29.6919,18.745251953125L26.9167,19.932451953125L26.9167,24.083251953125C26.9167,25.648651953125,25.6487,26.916551953125,24.0833,26.916551953125L21.2514,26.916551953125L21.25,31.166551953125L8.5,31.166551953125L8.5,25.933451953125C8.5,24.261751953125,7.88233,22.679351953125,6.73767,21.251351953125C5.18075,19.310451953125,4.25,16.846951953125,4.25,14.166551953125C4.25,7.907751953125,9.3245,2.833251953125,15.5833,2.833251953125ZM15.5833,9.916581953125C14.8013,9.916581953125,14.16667,10.551251953125,14.16667,11.333251953125L14.16667,12.748501953125L12.75,12.749921953125C11.968,12.749921953125,11.33333,13.384551953125,11.33333,14.166551953125C11.33333,14.948551953125,11.968,15.583251953125,12.75,15.583251953125L14.16667,15.581851953125L14.16667,16.999951953125C14.16667,17.781951953125002,14.8013,18.416551953125,15.5833,18.416551953125C16.365299999999998,18.416551953125,17,17.781951953125002,17,16.999951953125L17,15.583251953125L18.4167,15.583251953125C19.198700000000002,15.583251953125,19.8333,14.948551953125,19.8333,14.166551953125C19.8333,13.384551953125,19.198700000000002,12.749921953125,18.4167,12.749921953125L17,12.749921953125L17,11.333251953125C17,10.551251953125,16.365299999999998,9.916581953125,15.5833,9.916581953125Z" fill="#635DF7" fill-opacity="1"/></g></g></svg>