<svg xmlns="http://www.w3.org/2000/svg" xmlns:xlink="http://www.w3.org/1999/xlink" fill="none" version="1.1" width="23.999853134155273" height="22.957780838012695" viewBox="0 0 23.999853134155273 22.957780838012695"><path d="M20.8696,11.4848L20.8696,10.5144C20.8696,9.93809,21.3368,9.47091,21.9131,9.47091C22.4894,9.47091,22.9566,9.93809,22.9566,10.5144L22.9566,11.4854C22.9537,16.5688,19.6076,21.0448,14.7328,22.4861C11.6483,23.3981,8.35306,22.9708,5.62014,21.3501C4.10873,20.4538,2.81845,19.2202,1.84916,17.7262C-0.917603,13.4618,-0.549901,7.88542,2.75287,4.02119C6.05563,0.156954,11.5067,-1.07464,16.15,0.994287C16.6764,1.22884,16.913,1.84572,16.6784,2.37212C16.4439,2.89853,15.827,3.13512,15.3006,2.90057C11.5015,1.20781,7.04158,2.21548,4.33931,5.37713C1.63705,8.53877,1.3362,13.1012,3.59992,16.5903C4.39335,17.8133,5.44828,18.8218,6.68467,19.555C8.92147,20.8816,11.617,21.2311,14.1411,20.4848C18.1295,19.3055,20.8673,15.6433,20.8696,11.4848ZM7.60983,9.7035C8.01733,9.296,8.67802,9.296,9.08553,9.7035L11.4781,12.0961L22.2185,1.35568C22.626,0.948173,23.2867,0.948173,23.6942,1.35568C24.1017,1.76318,24.1017,2.42387,23.6942,2.83138L12.216,14.3096C11.8085,14.7171,11.1478,14.7171,10.7403,14.3096L7.60983,11.1792C7.20232,10.7717,7.20232,10.111,7.60983,9.7035Z" fill-rule="evenodd" fill="#FFFFFF" fill-opacity="1"/></svg>