<svg xmlns="http://www.w3.org/2000/svg" xmlns:xlink="http://www.w3.org/1999/xlink" fill="none" version="1.1" width="30" height="30" viewBox="0 0 30 30"><g><path d="M29.3974,30.29805C29.4072,30.30525,29.4167,30.31255,29.4261,30.31995C29.7888,30.604064,30.0004,31.03931,30,31.5L30,52.5C30,53.3284,29.3284,54,28.5,54L18.6182,54L22.0575,57.4394C22.6433,58.025099999999995,22.6433,58.974900000000005,22.0575,59.5606C21.4717,60.1464,20.522,60.1464,19.9362,59.5606L15,54.6245L10.0638,59.5606C9.47802,60.1464,8.52828,60.1464,7.9425,59.5606C7.35673,58.974900000000005,7.35673,58.025099999999995,7.9425,57.4394L11.3819,54L1.5,54C0.671573,54,0,53.3284,0,52.5L0,45C0,44.1716,0.671573,43.5,1.5,43.5C2.32843,43.5,3,44.1716,3,45L3,51L27,51L27,33L1.5,33C0.671573,33,0,32.32843,0,31.5C0,30.671573,0.671573,30,1.5,30L28.5,30C28.589,30.00000322715,28.6779,30.00788396,28.7655,30.02355C28.9947,30.0645157,29.2111,30.15852,29.3974,30.29805ZM1.5,40.5C2.32843,40.5,3,39.82843,3,39L3,37.5C3,36.67157,2.32843,36,1.5,36C0.671573,36,0,36.67157,0,37.5L0,39C0,39.82843,0.671573,40.5,1.5,40.5ZM11.928,37C11.4155,37,11,37.4126,11,37.92156L11,46.081199999999995C11.001,46.4203,11.1895,46.7314,11.4906,46.8912C11.7918,47.051100000000005,12.157,47.033699999999996,12.4415,46.8461L18.5896,42.7656C19.1368,42.4004,19.1368,41.600899999999996,18.5896,41.2358L12.4429,37.1553C12.2905,37.054050000000004,12.1113,37,11.928,37ZM12.8543,44.3595L12.8543,39.64148L16.4078,42.0007L12.8543,44.3595Z" fill-rule="evenodd" transform="matrix(1,0,0,-1,0,60)" fill="#FFD340" fill-opacity="1"/></g></svg>