<svg width="18" height="18" viewBox="0 0 18 18" fill="none" xmlns="http://www.w3.org/2000/svg">
<path d="M1.06152 8.99277C1.06152 10.0211 1.26408 11.0394 1.65762 11.9895C2.05115 12.9396 2.62797 13.8029 3.35514 14.53C4.08231 15.2572 4.94558 15.834 5.89567 16.2276C6.84576 16.6211 7.86405 16.8237 8.89242 16.8237C9.92079 16.8237 10.9391 16.6211 11.8892 16.2276C12.8393 15.834 13.7025 15.2572 14.4297 14.53C15.1569 13.8029 15.7337 12.9396 16.1272 11.9895C16.5208 11.0394 16.7233 10.0211 16.7233 8.99277C16.7233 7.9644 16.5208 6.9461 16.1272 5.99601C15.7337 5.04592 15.1569 4.18265 14.4297 3.45548C13.7025 2.72832 12.8393 2.1515 11.8892 1.75796C10.9391 1.36442 9.92079 1.16187 8.89242 1.16187C7.86405 1.16187 6.84576 1.36442 5.89567 1.75796C4.94558 2.1515 4.08231 2.72832 3.35514 3.45548C2.62797 4.18265 2.05115 5.04592 1.65762 5.99601C1.26408 6.9461 1.06152 7.9644 1.06152 8.99277V8.99277Z" fill="#FFEFEB"/>
<path d="M8.7245 3.90777L6.0731 6.29097C6.0182 6.34047 5.9471 6.36747 5.8742 6.36747H3.9941C3.4865 6.36747 3.0752 6.77877 3.0752 7.28637V10.8081C3.0752 11.3157 3.4865 11.727 3.9941 11.727H5.8067C5.8778 11.727 5.9471 11.7522 6.0011 11.799L8.7335 14.1525C9.1106 14.4774 9.6947 14.2092 9.6947 13.7115V4.34067C9.6947 3.83757 9.0989 3.57207 8.7245 3.90777ZM11.0384 11.763C10.9644 11.7631 10.8915 11.7459 10.8254 11.7128C10.7593 11.6797 10.7018 11.6315 10.6577 11.5722C10.583 11.4713 10.5513 11.3449 10.5697 11.2207C10.5881 11.0965 10.655 10.9847 10.7558 10.9098C11.3624 10.4598 11.7098 9.76947 11.7098 9.01527C11.7098 8.27547 11.3723 7.59327 10.7846 7.14237C10.5776 6.98307 10.538 6.68607 10.6964 6.47907C10.8557 6.27207 11.1527 6.23247 11.3597 6.39087C12.1832 7.02177 12.6557 7.97847 12.6557 9.01527C12.6557 10.0566 12.1562 11.0484 11.3192 11.6694C11.2355 11.7333 11.1365 11.763 11.0384 11.763Z" fill="#FF5A3E"/>
<path d="M12.5758 13.2741C12.4417 13.2741 12.3094 13.2174 12.2158 13.1076C12.0466 12.9087 12.07 12.6099 12.2689 12.4407C12.765 12.0186 13.1635 11.4938 13.4367 10.9025C13.7099 10.3112 13.8513 9.66755 13.8511 9.01618C13.8511 7.69588 13.2742 6.44758 12.268 5.58988C12.2206 5.54962 12.1817 5.50042 12.1534 5.44509C12.1251 5.38977 12.108 5.3294 12.1031 5.26745C12.0981 5.2055 12.1055 5.14319 12.1246 5.08408C12.1438 5.02497 12.1745 4.97023 12.2149 4.92298C12.2551 4.87564 12.3043 4.83671 12.3596 4.80842C12.415 4.78012 12.4753 4.76301 12.5373 4.75808C12.5992 4.75315 12.6615 4.76049 12.7207 4.77967C12.7798 4.79886 12.8345 4.82951 12.8818 4.86988C13.4827 5.38074 13.9653 6.01618 14.2962 6.73215C14.627 7.44811 14.7982 8.22747 14.7979 9.01618C14.7979 10.6137 14.1004 12.1239 12.8836 13.1616C12.7936 13.2372 12.6847 13.2741 12.5758 13.2741Z" fill="#FF5A3E"/>
<path d="M13.8302 5.91927C13.5609 5.52948 13.242 5.17641 12.8816 4.86897C12.6827 4.69977 12.3839 4.72317 12.2147 4.92207C12.0455 5.12097 12.0689 5.41977 12.2678 5.58897C12.9009 6.12781 13.3722 6.83155 13.6295 7.62207C13.6529 7.52847 13.6754 7.43577 13.6943 7.34037C13.7895 6.87278 13.8351 6.39644 13.8302 5.91927ZM11.3606 6.39177C11.3113 6.35391 11.255 6.32616 11.1949 6.3101C11.1349 6.29405 11.0723 6.29 11.0106 6.29819C10.949 6.30639 10.8896 6.32666 10.8358 6.35785C10.7821 6.38905 10.735 6.43055 10.6973 6.47997C10.6594 6.52928 10.6317 6.58557 10.6156 6.64562C10.5996 6.70568 10.5955 6.76831 10.6037 6.82993C10.6119 6.89155 10.6322 6.95095 10.6634 7.00472C10.6946 7.05849 10.7361 7.10557 10.7855 7.14327C11.3732 7.59417 11.7107 8.27637 11.7107 9.01617C11.7107 9.77037 11.3633 10.4607 10.7567 10.9107C10.6984 10.954 10.6509 11.0102 10.6178 11.0749C10.5847 11.1395 10.5668 11.2109 10.5657 11.2835C10.5646 11.3562 10.5802 11.4281 10.6112 11.4937C10.6423 11.5594 10.6881 11.617 10.745 11.6622C11.4182 11.2266 12.0131 10.6722 12.4973 10.0215C12.6022 9.69697 12.656 9.35811 12.6566 9.01707C12.6566 7.97937 12.1841 7.02267 11.3606 6.39177ZM8.72449 3.90777L6.07309 6.29097C6.01819 6.34047 5.9471 6.36747 5.8742 6.36747H3.9941C3.4865 6.36747 3.0752 6.77877 3.0752 7.28637V10.8081C3.0752 11.3157 3.4865 11.727 3.9941 11.727H5.8067C5.8778 11.727 5.9471 11.7522 6.0011 11.799L7.10089 12.7467C8.00809 12.744 8.8865 12.5577 9.6947 12.2175V4.34067C9.6947 3.83757 9.09889 3.57207 8.72449 3.90777Z" fill="#FF6B50"/>
<path d="M12.2138 4.92297C12.0518 5.11287 12.068 5.39277 12.2435 5.56557C12.3517 5.3023 12.4458 5.03342 12.5252 4.76007C12.4082 4.77177 12.2957 4.82577 12.2138 4.92297ZM11.3606 6.39177C11.3113 6.35391 11.255 6.32616 11.1949 6.3101C11.1349 6.29405 11.0723 6.29 11.0106 6.29819C10.949 6.30638 10.8896 6.32666 10.8359 6.35785C10.7821 6.38905 10.735 6.43055 10.6973 6.47997C10.6594 6.52928 10.6317 6.58557 10.6156 6.64562C10.5996 6.70568 10.5955 6.76831 10.6037 6.82993C10.6119 6.89155 10.6322 6.95095 10.6634 7.00471C10.6946 7.05848 10.7361 7.10557 10.7855 7.14327C10.9079 7.23745 11.0209 7.34324 11.123 7.45917C11.3237 7.20987 11.5109 6.94707 11.6801 6.67167C11.5802 6.57267 11.474 6.47817 11.3606 6.39177ZM8.72449 3.90777L6.0731 6.29097C6.0182 6.34047 5.9471 6.36747 5.8742 6.36747H3.9941C3.4865 6.36747 3.0752 6.77877 3.0752 7.28637V10.0764C3.23 10.1178 3.3875 10.1556 3.5468 10.188C5.7842 10.6443 7.9928 10.0845 9.6947 8.82627V4.34067C9.6947 3.83757 9.0989 3.57207 8.72449 3.90777Z" fill="#FF7F66"/>
<path d="M8.72449 3.90777L6.0731 6.29097C6.0182 6.34047 5.9471 6.36747 5.8742 6.36747H3.9941C3.4865 6.36747 3.0752 6.77877 3.0752 7.28637V7.83717C5.6591 8.07117 8.1197 6.97677 9.6947 5.05887V4.34067C9.6947 3.83757 9.0989 3.57207 8.72449 3.90777Z" fill="#FF9A7B"/>
</svg>
