<svg width="15" height="14" viewBox="0 0 15 14" fill="none" xmlns="http://www.w3.org/2000/svg">
<path d="M7.07403 0C3.16898 0 0 3.13643 0 7.00053C0 10.8646 3.16898 14 7.07403 14C10.9791 14 14.1481 10.8646 14.1481 7.00053C14.1481 3.13643 10.9791 0 7.07403 0ZM6.36631 9.7999C6.36631 9.41349 6.68027 9.10058 7.06668 9.10058H7.08138C7.2623 9.10759 7.43347 9.18439 7.55899 9.31487C7.68452 9.44535 7.75463 9.61937 7.75463 9.80042C7.75463 9.98147 7.68452 10.1555 7.55899 10.286C7.43347 10.4165 7.2623 10.4933 7.08138 10.5003H7.06668C6.88093 10.5003 6.70279 10.4265 6.57144 10.2951C6.4401 10.1638 6.36631 9.98564 6.36631 9.7999ZM6.36631 6.99318V4.20746C6.36264 4.11229 6.37822 4.01737 6.41211 3.92837C6.44599 3.83937 6.49749 3.75812 6.56352 3.6895C6.62956 3.62087 6.70876 3.56628 6.79639 3.52899C6.88402 3.4917 6.97827 3.47248 7.0735 3.47248C7.16874 3.47248 7.26299 3.4917 7.35062 3.52899C7.43825 3.56628 7.51745 3.62087 7.58348 3.6895C7.64951 3.75812 7.70101 3.83937 7.7349 3.92837C7.76879 4.01737 7.78436 4.11229 7.78069 4.20746V6.99318C7.78436 7.08834 7.76879 7.18326 7.7349 7.27226C7.70101 7.36126 7.64951 7.44251 7.58348 7.51113C7.51745 7.57976 7.43825 7.63435 7.35062 7.67164C7.26299 7.70893 7.16874 7.72815 7.0735 7.72815C6.97827 7.72815 6.88402 7.70893 6.79639 7.67164C6.70876 7.63435 6.62956 7.57976 6.56352 7.51113C6.49749 7.44251 6.44599 7.36126 6.41211 7.27226C6.37822 7.18326 6.36264 7.08834 6.36631 6.99318Z" fill="#F26600"/>
</svg>
